<?xml version="1.0" encoding="UTF-8" standalone="no"?>
<!DOCTYPE svg PUBLIC "-//W3C//DTD SVG 1.1//EN"
 "http://www.w3.org/Graphics/SVG/1.1/DTD/svg11.dtd">
<!-- Generated by graphviz version 2.43.0 (0)
 -->
<!-- Title: G Pages: 1 -->
<svg width="1562pt" height="292pt"
 viewBox="0.00 0.00 1562.00 292.00" xmlns="http://www.w3.org/2000/svg" xmlns:xlink="http://www.w3.org/1999/xlink">
<g id="graph0" class="graph" transform="scale(1 1) rotate(0) translate(4 288)">
<title>G</title>
<polygon fill="white" stroke="transparent" points="-4,4 -4,-288 1558,-288 1558,4 -4,4"/>
<g id="clust1" class="cluster">
<title>cluster_G</title>
<path fill="#808080" fill-opacity="0.094118" stroke="black" d="M20,-8C20,-8 1534,-8 1534,-8 1540,-8 1546,-14 1546,-20 1546,-20 1546,-264 1546,-264 1546,-270 1540,-276 1534,-276 1534,-276 20,-276 20,-276 14,-276 8,-270 8,-264 8,-264 8,-20 8,-20 8,-14 14,-8 20,-8"/>
</g>
<!-- demo -->
<g id="node1" class="node">
<title>demo</title>
<ellipse fill="#ffffff" fill-opacity="0.698039" stroke="black" cx="727" cy="-250" rx="36.29" ry="18"/>
<text text-anchor="middle" x="727" y="-246.3" font-family="Times,serif" font-size="14.00" fill="#000000">demo</text>
</g>
<!-- demo__demo_calendar -->
<g id="node2" class="node">
<title>demo__demo_calendar</title>
<ellipse fill="#fecccc" fill-opacity="0.698039" stroke="black" cx="97" cy="-34" rx="80.69" ry="18"/>
<text text-anchor="middle" x="97" y="-30.3" font-family="Times,serif" font-size="14.00" fill="#000000">demo_calendar</text>
</g>
<!-- demo&#45;&gt;demo__demo_calendar -->
<g id="edge9" class="edge">
<title>demo&#45;&gt;demo__demo_calendar</title>
<path fill="none" stroke="#838b8b" stroke-dasharray="5,2" d="M690.44,-249.14C581.92,-248.98 263.69,-244.31 174,-196 137.82,-176.51 133.66,-161.1 116,-124 106.69,-104.44 101.9,-80.31 99.46,-62.11"/>
<polygon fill="#838b8b" stroke="#838b8b" points="102.94,-61.67 98.28,-52.16 95.99,-62.5 102.94,-61.67"/>
</g>
<!-- demo__demo_monet -->
<g id="node3" class="node">
<title>demo__demo_monet</title>
<ellipse fill="#fecccc" fill-opacity="0.698039" stroke="black" cx="206" cy="-106" rx="69.59" ry="18"/>
<text text-anchor="middle" x="206" y="-102.3" font-family="Times,serif" font-size="14.00" fill="#000000">demo_monet</text>
</g>
<!-- demo&#45;&gt;demo__demo_monet -->
<g id="edge8" class="edge">
<title>demo&#45;&gt;demo__demo_monet</title>
<path fill="none" stroke="#838b8b" stroke-dasharray="5,2" d="M695.97,-240.54C610.57,-217.27 371.17,-152.02 261.79,-122.21"/>
<polygon fill="#838b8b" stroke="#838b8b" points="262.5,-118.77 251.94,-119.52 260.66,-125.53 262.5,-118.77"/>
</g>
<!-- demo__demo_right_side_up_sioux_falls -->
<g id="node4" class="node">
<title>demo__demo_right_side_up_sioux_falls</title>
<ellipse fill="#fecccc" fill-opacity="0.698039" stroke="black" cx="467" cy="-106" rx="155.17" ry="18"/>
<text text-anchor="middle" x="467" y="-102.3" font-family="Times,serif" font-size="14.00" fill="#000000">demo_right_side_up_sioux_falls</text>
</g>
<!-- demo&#45;&gt;demo__demo_right_side_up_sioux_falls -->
<g id="edge3" class="edge">
<title>demo&#45;&gt;demo__demo_right_side_up_sioux_falls</title>
<path fill="none" stroke="#838b8b" stroke-dasharray="5,2" d="M703.47,-236.15C658.92,-211.82 561.82,-158.79 506.91,-128.8"/>
<polygon fill="#838b8b" stroke="#838b8b" points="508.28,-125.55 497.82,-123.83 504.92,-131.7 508.28,-125.55"/>
</g>
<!-- demo__demo_sf_upside_down_animation -->
<g id="node5" class="node">
<title>demo__demo_sf_upside_down_animation</title>
<ellipse fill="#fecccc" fill-opacity="0.698039" stroke="black" cx="822" cy="-106" rx="163.57" ry="18"/>
<text text-anchor="middle" x="822" y="-102.3" font-family="Times,serif" font-size="14.00" fill="#000000">demo_sf_upside_down_animation</text>
</g>
<!-- demo&#45;&gt;demo__demo_sf_upside_down_animation -->
<g id="edge4" class="edge">
<title>demo&#45;&gt;demo__demo_sf_upside_down_animation</title>
<path fill="none" stroke="#838b8b" stroke-dasharray="5,2" d="M755.96,-238.72C775.16,-230.32 799.11,-216.45 812,-196 823.56,-177.66 825.5,-152.9 824.86,-134.15"/>
<polygon fill="#838b8b" stroke="#838b8b" points="828.35,-133.94 824.27,-124.17 821.37,-134.36 828.35,-133.94"/>
</g>
<!-- demo__demo_thumbnails -->
<g id="node6" class="node">
<title>demo__demo_thumbnails</title>
<ellipse fill="#fecccc" fill-opacity="0.698039" stroke="black" cx="307" cy="-34" rx="92.88" ry="18"/>
<text text-anchor="middle" x="307" y="-30.3" font-family="Times,serif" font-size="14.00" fill="#000000">demo_thumbnails</text>
</g>
<!-- demo&#45;&gt;demo__demo_thumbnails -->
<g id="edge2" class="edge">
<title>demo&#45;&gt;demo__demo_thumbnails</title>
<path fill="none" stroke="#838b8b" stroke-dasharray="5,2" d="M690.72,-247.36C571.69,-241.13 196.73,-214.5 127,-124 117.23,-111.33 117.42,-100.81 127,-88 139.76,-70.94 186.48,-57.47 229.12,-48.39"/>
<polygon fill="#838b8b" stroke="#838b8b" points="229.91,-51.8 238.99,-46.34 228.49,-44.94 229.91,-51.8"/>
</g>
<!-- demo__display_thumbnails -->
<g id="node7" class="node">
<title>demo__display_thumbnails</title>
<ellipse fill="#fecccc" fill-opacity="0.698039" stroke="black" cx="1123" cy="-106" rx="100.98" ry="18"/>
<text text-anchor="middle" x="1123" y="-102.3" font-family="Times,serif" font-size="14.00" fill="#000000">display_thumbnails</text>
</g>
<!-- demo&#45;&gt;demo__display_thumbnails -->
<g id="edge6" class="edge">
<title>demo&#45;&gt;demo__display_thumbnails</title>
<path fill="none" stroke="#838b8b" stroke-dasharray="5,2" d="M755.48,-238.79C821.56,-215.09 986.13,-156.08 1070.82,-125.71"/>
<polygon fill="#838b8b" stroke="#838b8b" points="1072.02,-129 1080.25,-122.33 1069.66,-122.41 1072.02,-129"/>
</g>
<!-- demo__main_func -->
<g id="node8" class="node">
<title>demo__main_func</title>
<ellipse fill="#fecccc" fill-opacity="0.698039" stroke="black" cx="727" cy="-178" rx="57.69" ry="18"/>
<text text-anchor="middle" x="727" y="-174.3" font-family="Times,serif" font-size="14.00" fill="#000000">main_func</text>
</g>
<!-- demo&#45;&gt;demo__main_func -->
<g id="edge1" class="edge">
<title>demo&#45;&gt;demo__main_func</title>
<path fill="none" stroke="#838b8b" stroke-dasharray="5,2" d="M727,-231.7C727,-223.98 727,-214.71 727,-206.11"/>
<polygon fill="#838b8b" stroke="#838b8b" points="730.5,-206.1 727,-196.1 723.5,-206.1 730.5,-206.1"/>
</g>
<!-- demo__run_sioux_falls_tci -->
<g id="node9" class="node">
<title>demo__run_sioux_falls_tci</title>
<ellipse fill="#fecccc" fill-opacity="0.698039" stroke="black" cx="977" cy="-34" rx="95.58" ry="18"/>
<text text-anchor="middle" x="977" y="-30.3" font-family="Times,serif" font-size="14.00" fill="#000000">run_sioux_falls_tci</text>
</g>
<!-- demo&#45;&gt;demo__run_sioux_falls_tci -->
<g id="edge7" class="edge">
<title>demo&#45;&gt;demo__run_sioux_falls_tci</title>
<path fill="none" stroke="#838b8b" stroke-dasharray="5,2" d="M763.56,-249.25C906.72,-249.37 1426.34,-241.61 1527,-124 1537.4,-111.84 1537.76,-99.84 1527,-88 1497.68,-55.72 1232.57,-42.56 1081.39,-37.64"/>
<polygon fill="#838b8b" stroke="#838b8b" points="1081.26,-34.13 1071.15,-37.31 1081.03,-41.13 1081.26,-34.13"/>
</g>
<!-- demo__turn_it_back_to_thomas -->
<g id="node10" class="node">
<title>demo__turn_it_back_to_thomas</title>
<ellipse fill="#fecccc" fill-opacity="0.698039" stroke="black" cx="1380" cy="-106" rx="120.48" ry="18"/>
<text text-anchor="middle" x="1380" y="-102.3" font-family="Times,serif" font-size="14.00" fill="#000000">turn_it_back_to_thomas</text>
</g>
<!-- demo&#45;&gt;demo__turn_it_back_to_thomas -->
<g id="edge5" class="edge">
<title>demo&#45;&gt;demo__turn_it_back_to_thomas</title>
<path fill="none" stroke="#838b8b" stroke-dasharray="5,2" d="M759.83,-241.86C859.91,-220.1 1162.96,-154.2 1305.01,-123.31"/>
<polygon fill="#838b8b" stroke="#838b8b" points="1305.93,-126.69 1314.96,-121.14 1304.44,-119.85 1305.93,-126.69"/>
</g>
<!-- demo__demo_calendar&#45;&gt;demo__demo_calendar -->
<g id="edge25" class="edge">
<title>demo__demo_calendar&#45;&gt;demo__demo_calendar</title>
<path fill="none" stroke="#000000" d="M151.25,-47.31C175.08,-48.49 195.59,-44.05 195.59,-34 195.59,-25.4 180.58,-20.91 161.32,-20.53"/>
<polygon fill="#000000" stroke="#000000" points="161.19,-17.03 151.25,-20.69 161.3,-24.03 161.19,-17.03"/>
</g>
<!-- demo__demo_monet&#45;&gt;demo__demo_calendar -->
<g id="edge19" class="edge">
<title>demo__demo_monet&#45;&gt;demo__demo_calendar</title>
<path fill="none" stroke="#000000" d="M181.27,-89.12C166.43,-79.59 147.34,-67.33 131.09,-56.89"/>
<polygon fill="#000000" stroke="#000000" points="132.7,-53.77 122.39,-51.31 128.92,-59.66 132.7,-53.77"/>
</g>
<!-- demo__demo_monet&#45;&gt;demo__demo_monet -->
<g id="edge18" class="edge">
<title>demo__demo_monet&#45;&gt;demo__demo_monet</title>
<path fill="none" stroke="#000000" d="M253.28,-119.26C274.82,-120.62 293.54,-116.2 293.54,-106 293.54,-97.48 280.46,-92.99 263.58,-92.54"/>
<polygon fill="#000000" stroke="#000000" points="263.21,-89.04 253.28,-92.74 263.35,-96.04 263.21,-89.04"/>
</g>
<!-- demo__demo_monet&#45;&gt;demo__demo_thumbnails -->
<g id="edge16" class="edge">
<title>demo__demo_monet&#45;&gt;demo__demo_thumbnails</title>
<path fill="none" stroke="#000000" d="M229.17,-88.94C242.71,-79.56 259.99,-67.58 274.83,-57.3"/>
<polygon fill="#000000" stroke="#000000" points="277.01,-60.04 283.24,-51.47 273.02,-54.29 277.01,-60.04"/>
</g>
<!-- demo__demo_monet&#45;&gt;demo__run_sioux_falls_tci -->
<g id="edge17" class="edge">
<title>demo__demo_monet&#45;&gt;demo__run_sioux_falls_tci</title>
<path fill="none" stroke="#000000" d="M259.99,-94.6C273.96,-92.17 289.01,-89.77 303,-88 505.29,-62.38 743.41,-47.12 875.58,-39.97"/>
<polygon fill="#000000" stroke="#000000" points="875.89,-43.45 885.69,-39.42 875.52,-36.46 875.89,-43.45"/>
</g>
<!-- demo__demo_right_side_up_sioux_falls&#45;&gt;demo__demo_right_side_up_sioux_falls -->
<g id="edge21" class="edge">
<title>demo__demo_right_side_up_sioux_falls&#45;&gt;demo__demo_right_side_up_sioux_falls</title>
<path fill="none" stroke="#000000" d="M570.21,-119.47C608.67,-119.91 640.34,-115.42 640.34,-106 640.34,-97.42 614.11,-92.93 580.4,-92.53"/>
<polygon fill="#000000" stroke="#000000" points="580.21,-89.03 570.21,-92.53 580.21,-96.03 580.21,-89.03"/>
</g>
<!-- demo__demo_sf_upside_down_animation&#45;&gt;demo__demo_sf_upside_down_animation -->
<g id="edge22" class="edge">
<title>demo__demo_sf_upside_down_animation&#45;&gt;demo__demo_sf_upside_down_animation</title>
<path fill="none" stroke="#000000" d="M930.69,-119.48C970.83,-119.88 1003.79,-115.39 1003.79,-106 1003.79,-97.42 976.25,-92.93 940.87,-92.53"/>
<polygon fill="#000000" stroke="#000000" points="940.7,-89.03 930.69,-92.52 940.69,-96.03 940.7,-89.03"/>
</g>
<!-- demo__demo_thumbnails&#45;&gt;demo__demo_thumbnails -->
<g id="edge26" class="edge">
<title>demo__demo_thumbnails&#45;&gt;demo__demo_thumbnails</title>
<path fill="none" stroke="#000000" d="M369.45,-47.37C395.66,-48.34 417.94,-43.88 417.94,-34 417.94,-25.43 401.19,-20.94 379.64,-20.53"/>
<polygon fill="#000000" stroke="#000000" points="379.41,-17.03 369.45,-20.63 379.48,-24.03 379.41,-17.03"/>
</g>
<!-- demo__display_thumbnails&#45;&gt;demo__display_thumbnails -->
<g id="edge20" class="edge">
<title>demo__display_thumbnails&#45;&gt;demo__display_thumbnails</title>
<path fill="none" stroke="#000000" d="M1190.44,-119.39C1218.24,-120.27 1241.74,-115.81 1241.74,-106 1241.74,-97.42 1223.74,-92.93 1200.62,-92.53"/>
<polygon fill="#000000" stroke="#000000" points="1200.41,-89.03 1190.44,-92.61 1200.46,-96.03 1200.41,-89.03"/>
</g>
<!-- demo__main_func&#45;&gt;demo__demo_monet -->
<g id="edge15" class="edge">
<title>demo__main_func&#45;&gt;demo__demo_monet</title>
<path fill="none" stroke="#000000" d="M673.34,-171.15C592.76,-162.17 435.79,-143.92 303,-124 292.62,-122.44 281.64,-120.66 270.95,-118.84"/>
<polygon fill="#000000" stroke="#000000" points="271.26,-115.34 260.81,-117.09 270.07,-122.24 271.26,-115.34"/>
</g>
<!-- demo__main_func&#45;&gt;demo__demo_right_side_up_sioux_falls -->
<g id="edge11" class="edge">
<title>demo__main_func&#45;&gt;demo__demo_right_side_up_sioux_falls</title>
<path fill="none" stroke="#000000" d="M684.65,-165.6C644.21,-154.71 582.6,-138.12 535.24,-125.37"/>
<polygon fill="#000000" stroke="#000000" points="535.92,-121.93 525.36,-122.71 534.1,-128.69 535.92,-121.93"/>
</g>
<!-- demo__main_func&#45;&gt;demo__demo_sf_upside_down_animation -->
<g id="edge12" class="edge">
<title>demo__main_func&#45;&gt;demo__demo_sf_upside_down_animation</title>
<path fill="none" stroke="#000000" d="M748.56,-161.12C760.98,-151.96 776.82,-140.29 790.6,-130.14"/>
<polygon fill="#000000" stroke="#000000" points="792.89,-132.79 798.87,-124.04 788.74,-127.16 792.89,-132.79"/>
</g>
<!-- demo__main_func&#45;&gt;demo__display_thumbnails -->
<g id="edge14" class="edge">
<title>demo__main_func&#45;&gt;demo__display_thumbnails</title>
<path fill="none" stroke="#000000" d="M775.95,-168.35C843.03,-156.49 964.27,-135.06 1044.21,-120.93"/>
<polygon fill="#000000" stroke="#000000" points="1044.99,-124.34 1054.23,-119.16 1043.78,-117.45 1044.99,-124.34"/>
</g>
<!-- demo__main_func&#45;&gt;demo__main_func -->
<g id="edge10" class="edge">
<title>demo__main_func&#45;&gt;demo__main_func</title>
<path fill="none" stroke="#000000" d="M766.8,-191.17C785.95,-192.8 802.84,-188.41 802.84,-178 802.84,-169.46 791.47,-164.98 776.82,-164.54"/>
<polygon fill="#000000" stroke="#000000" points="776.69,-161.04 766.8,-164.83 776.9,-168.03 776.69,-161.04"/>
</g>
<!-- demo__main_func&#45;&gt;demo__turn_it_back_to_thomas -->
<g id="edge13" class="edge">
<title>demo__main_func&#45;&gt;demo__turn_it_back_to_thomas</title>
<path fill="none" stroke="#000000" d="M781.75,-172.01C877.16,-163.2 1080.03,-143.91 1251,-124 1261.74,-122.75 1272.97,-121.37 1284.13,-119.96"/>
<polygon fill="#000000" stroke="#000000" points="1284.87,-123.39 1294.35,-118.66 1283.99,-116.45 1284.87,-123.39"/>
</g>
<!-- demo__run_sioux_falls_tci&#45;&gt;demo__run_sioux_falls_tci -->
<g id="edge24" class="edge">
<title>demo__run_sioux_falls_tci&#45;&gt;demo__run_sioux_falls_tci</title>
<path fill="none" stroke="#000000" d="M1041.2,-47.38C1067.9,-48.3 1090.54,-43.84 1090.54,-34 1090.54,-25.43 1073.36,-20.94 1051.28,-20.53"/>
<polygon fill="#000000" stroke="#000000" points="1051.17,-17.03 1041.2,-20.62 1051.23,-24.03 1051.17,-17.03"/>
</g>
<!-- demo__turn_it_back_to_thomas&#45;&gt;demo__turn_it_back_to_thomas -->
<g id="edge23" class="edge">
<title>demo__turn_it_back_to_thomas&#45;&gt;demo__turn_it_back_to_thomas</title>
<path fill="none" stroke="#000000" d="M1460.25,-119.43C1491.85,-120.11 1518.24,-115.63 1518.24,-106 1518.24,-97.42 1497.3,-92.93 1470.4,-92.53"/>
<polygon fill="#000000" stroke="#000000" points="1470.23,-89.03 1460.25,-92.57 1470.26,-96.03 1470.23,-89.03"/>
</g>
</g>
</svg>
